<svg width="32" height="32" viewBox="0 0 32 32" fill="none" xmlns="http://www.w3.org/2000/svg">
<path fill-rule="evenodd" clip-rule="evenodd" d="M15.994 17.8029C20.6367 17.8029 24.6869 20.2963 26.8561 23.9999H5.13244C7.30162 20.2963 11.3518 17.8029 15.994 17.8029ZM28.4709 11.8603C29.2757 11.0652 30.5921 11.0652 31.3964 11.8603C32.2012 12.655 32.2012 13.9557 31.3964 14.7508L28.2785 17.8315C27.4741 18.6263 26.1577 18.6263 25.353 17.8315L25.2821 17.7579C24.5494 16.958 24.573 15.7116 25.353 14.941L28.4709 11.8603ZM0.677789 11.7902C1.48731 11.0659 2.74878 11.0893 3.52874 11.8603L6.64714 14.941C7.45147 15.7357 7.45147 17.0364 6.64714 17.8315C5.84239 18.6263 4.52598 18.6263 3.72165 17.8315L0.60325 14.7508C-0.201083 13.9557 -0.201083 12.655 0.60325 11.8603L0.677789 11.7902ZM15.968 6.33325L16.0574 6.33515C17.1543 6.38181 18.0366 7.28272 18.0366 8.37752V12.734C18.0366 13.8583 17.106 14.7782 15.968 14.7782C14.8304 14.7782 13.8994 13.8583 13.8994 12.734V8.37752C13.8994 7.25313 14.8304 6.33325 15.968 6.33325Z" fill="#02A95C"/>
</svg>
